<?xml version="1.0" encoding="utf-8"?>
<!-- Generator: Adobe Illustrator 19.0.0, SVG Export Plug-In . SVG Version: 6.00 Build 0)  -->
<svg version="1.1" id="layer" xmlns="http://www.w3.org/2000/svg" xmlns:xlink="http://www.w3.org/1999/xlink" x="0px" y="0px"
	 viewBox="-153 -46 652 652" style="enable-background:new -153 -46 652 652;" xml:space="preserve">
<style type="text/css">
	.st0{fill:#202020;}
	.st1{fill:#E6E7E8;}
	.st2{fill:url(#SVGID_1_);}
	.st3{fill:url(#SVGID_2_);}
</style>
<rect x="-132" y="137.7" class="st0" width="600" height="274.7"/>
<path class="st1" d="M36.7,275c7.2,0,10.6,3.8,10.6,12.1v30.5H59v-33.8c0-12.4-6.5-19.5-18.1-19.5c-6.9-0.4-13.5,3.2-16.9,9.3
	l-0.9,1.8v-9.7H11.8v51.8h11.6v-29.8c-0.4-6.7,4.6-12.4,11.3-12.8C35.4,274.9,36.1,274.9,36.7,275z"/>
<path class="st1" d="M304.2,275c7.2,0,10.6,3.8,10.6,12.1v30.5h11.7v-33.8c0-12.4-6.5-19.5-17.9-19.5c-7-0.4-13.5,3.2-16.9,9.3
	l-0.9,1.8v-9.7h-11.5v51.8h11.6v-29.8c-0.4-6.7,4.7-12.4,11.4-12.8C302.9,274.9,303.6,274.9,304.2,275z"/>
<path class="st1" d="M120,290.6c0-15.7-10.2-26.3-25.3-26.3s-26.3,11.3-26.3,27.6c0,16.3,10.8,27.1,27.5,27.1
	c8.5,0.3,16.6-3.3,22.1-9.7l-6.9-6.8c-3.7,4.2-9.1,6.6-14.7,6.4c-8.1,0.7-15.3-5.3-16-13.4V295h39.4
	C119.9,293.5,120,292.1,120,290.6z M80.2,287c0.7-7.4,7.1-12.9,14.5-12.5c6.8-0.6,12.8,4.5,13.4,11.4c0,0.4,0,0.7,0,1.1L80.2,287z"
	/>
<path class="st1" d="M187.9,275c6.6,0,9.7,3.6,9.7,11.9v30.7h11.7v-33.9c0-12.4-6.3-19.6-17.3-19.6c-7.3-0.4-14.2,3.5-17.6,10
	l-0.4,1l-0.4-1.1c-2.4-6.3-8.6-10.4-15.4-9.9c-6.7-0.3-13.1,3.2-16.3,9.2l-0.9,1.8v-9.4h-11.5v51.8h11.7v-29.9
	c-0.5-6.5,4.3-12.1,10.7-12.7c0.6-0.1,1.3-0.1,1.9,0c6.6,0,9.7,3.6,9.7,11.9v30.7h11.7v-29.9c-0.5-6.5,4.4-12.2,10.9-12.7
	C186.7,275,187.3,275,187.9,275z"/>
<path class="st1" d="M-23,275c6.6,0,9.7,3.6,9.7,11.9v30.7h11.7v-33.9c0-12.4-6.3-19.6-17.2-19.6c-7.3-0.4-14.2,3.5-17.6,10l-0.5,1
	l-0.4-1.1c-2.4-6.3-8.7-10.4-15.4-9.9c-6.7-0.3-13.1,3.2-16.3,9.2l-0.9,1.8v-9.4h-11.5v51.8h11.7v-29.9c-0.5-6.5,4.3-12.1,10.7-12.7
	c0.6-0.1,1.3-0.1,1.9,0c6.6,0,9.7,3.6,9.7,11.9v30.7h11.7v-29.9c-0.5-6.5,4.4-12.2,10.9-12.7C-24.2,275-23.6,275-23,275z"/>
<path class="st1" d="M244.8,264.2c-14.6-0.5-26.8,11-27.3,25.6c0,0.6,0,1.2,0,1.8c0,15.1,12.2,27.3,27.3,27.3
	c15.1,0,27.3-12.2,27.3-27.3c0.5-14.6-10.9-26.9-25.5-27.4C246,264.1,245.4,264.1,244.8,264.2z M244.8,308.3
	c-9.1,0-15.3-6.7-15.3-16.8s6.1-16.6,15.3-16.6c9.1,0,15.3,6.8,15.3,16.8c0,10-6.2,16.6-15.3,16.6V308.3z"/>
<polygon class="st1" points="340.4,263.7 340.4,317.6 352.1,317.6 352.1,272.1 "/>
<path class="st1" d="M400.4,299.5c-2.1,5.3-7.2,8.7-12.9,8.7c-9.2,0-15.2-6.6-15.2-16.8c0-10.2,6-16.7,15.2-16.7
	c5.7-0.1,10.8,3.4,12.9,8.6l9.8-5.3c-4.2-9-13.5-14.5-23.4-13.8c-15.6,0-26.5,11.3-26.5,27.4s10.8,27.3,26.5,27.3
	c9.8,0.5,19-5,23.2-13.9L400.4,299.5z"/>
<linearGradient id="SVGID_1_" gradientUnits="userSpaceOnUse" x1="346.5813" y1="321.8223" x2="367.4006" y2="301.003" gradientTransform="matrix(1 0 0 -1 0 560)">
	<stop  offset="0" style="stop-color:#808285"/>
	<stop  offset="1" style="stop-color:#E6E7E8"/>
</linearGradient>
<polygon class="st2" points="364.7,244.2 364.7,261.7 340.5,244.2 "/>
<linearGradient id="SVGID_2_" gradientUnits="userSpaceOnUse" x1="340.5181" y1="323.8735" x2="395.8193" y2="323.8735" gradientTransform="matrix(1 0 0 -1 0 560)">
	<stop  offset="0" style="stop-color:#EF6035"/>
	<stop  offset="1" style="stop-color:#FF8200"/>
</linearGradient>
<polygon class="st3" points="395.8,244.2 340.5,244.2 340.5,228 373.4,228 "/>
</svg>
